<svg width="197" height="52" viewBox="0 0 197 52" fill="none" xmlns="http://www.w3.org/2000/svg">
<rect x="0.5" y="0.500732" width="196" height="51" rx="1.5" fill="#F85146"/>
<path d="M25.26 33.0007V20.1207H27.18L33.9 29.6007V20.1207H36.06V33.0007H34.14L27.44 23.5407V33.0007H25.26ZM43.3998 33.2007C41.7465 33.2007 40.4665 32.7941 39.5598 31.9807C38.6532 31.1674 38.1998 29.9207 38.1998 28.2407C38.1998 26.7207 38.5865 25.5207 39.3598 24.6407C40.1332 23.7607 41.3065 23.3207 42.8798 23.3207C44.3198 23.3207 45.3998 23.7007 46.1198 24.4607C46.8532 25.2074 47.2198 26.1741 47.2198 27.3607V29.1207H40.2798C40.3865 30.0407 40.7198 30.6741 41.2798 31.0207C41.8398 31.3674 42.6932 31.5407 43.8398 31.5407C44.3198 31.5407 44.8132 31.4941 45.3198 31.4007C45.8265 31.3074 46.2665 31.1874 46.6398 31.0407V32.6407C46.2132 32.8274 45.7198 32.9674 45.1598 33.0607C44.6132 33.1541 44.0265 33.2007 43.3998 33.2007ZM40.2798 27.7007H45.2998V27.0407C45.2998 26.3874 45.1198 25.8807 44.7598 25.5207C44.3998 25.1474 43.7932 24.9607 42.9398 24.9607C41.9265 24.9607 41.2265 25.1807 40.8398 25.6207C40.4665 26.0607 40.2798 26.7541 40.2798 27.7007ZM50.5436 33.0007L48.0436 23.5207H50.2236L51.8636 30.4207L53.7236 24.6807V23.5207H55.3836L57.4436 30.4207L59.0836 23.5207H61.2436L58.7636 33.0007H56.7036L54.6836 26.8007L52.6236 33.0007H50.5436ZM67.9748 33.0007V20.1207H70.2148L74.2948 28.4607L78.3548 20.1207H80.5948V33.0007H78.4348V23.6607L74.9548 30.7807H73.6348L70.1348 23.6607V33.0007H67.9748ZM87.6516 33.2007C85.9449 33.2007 84.6916 32.7741 83.8916 31.9207C83.1049 31.0674 82.7116 29.8474 82.7116 28.2607C82.7116 26.6741 83.1116 25.4541 83.9116 24.6007C84.7116 23.7474 85.9582 23.3207 87.6516 23.3207C89.3582 23.3207 90.6116 23.7474 91.4116 24.6007C92.2116 25.4541 92.6116 26.6741 92.6116 28.2607C92.6116 29.8474 92.2116 31.0674 91.4116 31.9207C90.6249 32.7741 89.3716 33.2007 87.6516 33.2007ZM87.6516 31.3607C88.6516 31.3607 89.3582 31.1207 89.7716 30.6407C90.1982 30.1474 90.4116 29.3541 90.4116 28.2607C90.4116 27.1674 90.1982 26.3807 89.7716 25.9007C89.3582 25.4207 88.6516 25.1807 87.6516 25.1807C86.6649 25.1807 85.9582 25.4207 85.5316 25.9007C85.1182 26.3807 84.9116 27.1674 84.9116 28.2607C84.9116 29.3541 85.1182 30.1474 85.5316 30.6407C85.9582 31.1207 86.6649 31.3607 87.6516 31.3607ZM96.9789 33.0007L93.2389 23.5207H95.4989L98.1589 30.8807L100.819 23.5207H103.059L99.3389 33.0007H96.9789ZM105.298 21.5407V19.7407H107.678V21.5407H105.298ZM105.478 33.0007V25.1807H104.038L104.238 23.5207H107.658V33.0007H105.478ZM115.001 33.2007C113.348 33.2007 112.068 32.7941 111.161 31.9807C110.255 31.1674 109.801 29.9207 109.801 28.2407C109.801 26.7207 110.188 25.5207 110.961 24.6407C111.735 23.7607 112.908 23.3207 114.481 23.3207C115.921 23.3207 117.001 23.7007 117.721 24.4607C118.455 25.2074 118.821 26.1741 118.821 27.3607V29.1207H111.881C111.988 30.0407 112.321 30.6741 112.881 31.0207C113.441 31.3674 114.295 31.5407 115.441 31.5407C115.921 31.5407 116.415 31.4941 116.921 31.4007C117.428 31.3074 117.868 31.1874 118.241 31.0407V32.6407C117.815 32.8274 117.321 32.9674 116.761 33.0607C116.215 33.1541 115.628 33.2007 115.001 33.2007ZM111.881 27.7007H116.901V27.0407C116.901 26.3874 116.721 25.8807 116.361 25.5207C116.001 25.1474 115.395 24.9607 114.541 24.9607C113.528 24.9607 112.828 25.1807 112.441 25.6207C112.068 26.0607 111.881 26.7541 111.881 27.7007Z" fill="#F3F3F3"/>
<path d="M145 26.0007H161H145Z" fill="#F3F3F3"/>
<path d="M145 26.0007H161" stroke="#F3F3F3" stroke-width="3" stroke-linecap="round" stroke-linejoin="round"/>
<path d="M153 18.0007V34.0007V18.0007Z" fill="#F3F3F3"/>
<path d="M153 18.0007V34.0007" stroke="#F3F3F3" stroke-width="3" stroke-linecap="round" stroke-linejoin="round"/>
<circle cx="153" cy="26.0007" r="15" stroke="#F3F3F3" stroke-width="2"/>
<rect x="0.5" y="0.500732" width="196" height="51" rx="1.5" stroke="#F85146"/>
</svg>
