<svg width="24" height="29" viewBox="0 0 24 29" fill="none" xmlns="http://www.w3.org/2000/svg">
<path d="M22.4351 9.37648L22.4352 9.37669C22.5325 9.8856 22.4498 10.4132 22.2009 10.8672C21.9519 11.3214 21.552 11.6736 21.0701 11.8605L21.0696 11.8607L20.4291 12.1084L22.4351 9.37648ZM22.4351 9.37648L21.8875 6.52036L21.8875 6.52034C21.7835 5.97839 21.5283 5.47716 21.1512 5.07622C20.774 4.67522 20.2905 4.3913 19.7576 4.25895L19.7576 4.25894L9.44259 1.69856C8.18777 1.38706 6.86251 1.58998 5.75552 2.26226C4.64877 2.9344 3.85058 4.02065 3.53238 5.28335L3.53236 5.28344L1.61892 12.8824L1.6189 12.8825C1.51153 13.3093 1.50189 13.7551 1.5907 14.1862C1.6795 14.6172 1.86449 15.0225 2.13196 15.3709C2.39945 15.7194 2.74246 16.0019 3.13511 16.1964C3.52779 16.3909 3.95949 16.4921 4.39721 16.4921M22.4351 9.37648L4.39721 16.4921M10.3187 25.7393C10.3871 25.4678 10.4588 25.1971 10.5337 24.9274L10.3187 25.7393ZM10.3187 25.7393C10.0618 26.7279 9.93605 26.9456 9.91982 26.9456C8.74606 26.9456 7.88197 25.5983 7.88197 23.2501C7.88197 22.0398 8.3228 20.0531 9.21259 17.3421M10.3187 25.7393L15.8274 15.907M15.8274 15.907L15.8274 15.9071L11.9505 22.0493L11.9498 22.0504C11.8548 22.2 11.7809 22.3663 11.7314 22.5406L11.7309 22.5422C11.3904 23.7258 11.1529 24.5662 11.0155 25.0611L11.0155 25.0613C10.9416 25.3271 10.871 25.5938 10.8036 25.8614L10.8027 25.8651C10.6719 26.368 10.5716 26.6869 10.4982 26.886C10.4618 26.9847 10.4291 27.0621 10.3993 27.1213C10.3852 27.1493 10.3659 27.1849 10.3413 27.2202C10.3301 27.2362 10.3075 27.2673 10.2739 27.3002C10.2574 27.3164 10.2267 27.3444 10.1828 27.3713C10.146 27.3939 10.0521 27.4456 9.91982 27.4456C9.10976 27.4456 8.45479 26.9705 8.02737 26.2278C7.60628 25.4961 7.38197 24.4766 7.38197 23.2501C7.38197 21.9531 7.84682 19.9 8.73745 17.1864M15.8274 15.907C16.921 14.174 18.5341 12.8431 20.4286 12.1085L15.8274 15.907ZM8.73745 17.1864C8.73748 17.1863 8.7375 17.1862 8.73752 17.1862L9.21259 17.3421M8.73745 17.1864C8.73744 17.1864 8.73742 17.1865 8.73741 17.1865L9.21259 17.3421M8.73745 17.1864C8.76356 17.1066 8.77065 17.0214 8.75801 16.9381C8.74537 16.8547 8.71344 16.776 8.66527 16.7084C8.61712 16.6408 8.55424 16.5863 8.4822 16.5489C8.41018 16.5115 8.33081 16.4922 8.25053 16.4921M9.21259 17.3421C9.26308 17.1879 9.27671 17.0237 9.25237 16.8632C9.22802 16.7026 9.16639 16.5501 9.07254 16.4184C8.97869 16.2866 8.8553 16.1792 8.71251 16.1051C8.56971 16.031 8.41159 15.9923 8.25114 15.9921M8.25053 16.4921H8.25114V15.9921M8.25053 16.4921L8.25114 15.9921M8.25053 16.4921H4.39726L4.39721 15.9921M8.25114 15.9921H4.39721M4.39721 15.9921V16.4921M4.39721 15.9921C4.03668 15.9921 3.68091 15.9087 3.35705 15.7483C3.0332 15.5879 2.74983 15.3547 2.52858 15.0665C2.30732 14.7782 2.15403 14.4426 2.08041 14.0853C2.00679 13.7279 2.01479 13.3583 2.10379 13.0045L4.39721 16.4921M12.002 25.3491L12.0019 25.3498C11.9477 25.5452 11.8966 25.741 11.7954 26.1374C11.5459 27.0969 11.3228 27.6847 11.0415 28.0379C10.7996 28.3416 10.4911 28.5007 9.91847 28.5007C8.83802 28.5007 7.96854 27.9949 7.35064 27.096C6.72266 26.1825 6.35224 24.8526 6.35224 23.2501C6.35224 22.0803 6.67157 20.4131 7.33858 18.1895L7.53167 17.5459H6.85966H4.39586H4.39574C3.80326 17.546 3.21836 17.4091 2.68562 17.1452C2.15287 16.8813 1.68614 16.4974 1.32142 16.0222C0.95668 15.5471 0.703695 14.9933 0.582209 14.4033C0.46072 13.8131 0.474039 13.2027 0.621119 12.6187L0.136257 12.4965L0.621122 12.6186L2.53456 5.01966C2.92109 3.48469 3.89006 2.16816 5.22853 1.35497C6.56678 0.541924 8.16705 0.297108 9.68179 0.672846L19.9967 3.23321L19.9968 3.23322C20.7187 3.41235 21.3756 3.79741 21.8894 4.34369C22.4033 4.89 22.7523 5.57466 22.8945 6.31687C22.8945 6.3169 22.8945 6.31693 22.8945 6.31697L23.4408 9.17299L23.4408 9.17318C23.5856 9.92857 23.4627 10.7112 23.0944 11.3832C22.7261 12.0551 22.1366 12.5726 21.4306 12.8464L20.7912 13.0942L20.7911 13.0942C19.0999 13.7497 17.6621 14.9367 16.6883 16.4796L16.6882 16.4798L12.8147 22.6208C12.7719 22.6879 12.7389 22.7607 12.7165 22.8369L12.7157 22.8397C12.3776 24.0174 12.1392 24.8569 12.002 25.3491Z" fill="#5E5E75" stroke="#5E5E75"/>
</svg>
