<svg width="599" height="32" viewBox="0 0 599 32" fill="none" xmlns="http://www.w3.org/2000/svg">
<rect width="599" height="32" transform="translate(0 0.000732422)" fill="#272734"/>
<path d="M175.598 11.7625H163V10.3562H175.598V11.7625ZM173.078 16.907C173.078 15.032 172.191 14.0945 170.418 14.0945C169.105 14.0945 168.008 14.782 167.125 16.157C166.344 17.3757 165.953 18.6726 165.953 20.0476V23.4578L164.031 22.45V13.6375H166.047V15.032L167.09 14.2468C168.012 13.5515 168.984 13.2039 170.008 13.2039C171.398 13.2039 172.551 13.7429 173.465 14.821C174.324 15.8367 174.754 17.0515 174.754 18.4656C174.754 20.239 174.004 21.9421 172.504 23.575L170.242 22.157C170.945 21.4617 171.543 20.821 172.035 20.2351C172.73 19.407 173.078 18.2976 173.078 16.907Z" fill="white"/>
<path d="M187.351 11.7625H179.546V13.6375C179.578 13.6375 179.609 13.6531 179.64 13.6843C179.671 13.7156 179.699 13.7312 179.722 13.7312C179.66 13.7312 179.625 13.7273 179.617 13.7195C179.617 13.6804 180.199 13.5554 181.363 13.3445C181.792 13.2664 182.218 13.2273 182.64 13.2273C184.398 13.2273 185.527 13.7195 186.027 14.7039C186.363 15.3601 186.531 16.6843 186.531 18.6765V23.1882C186.367 23.1257 185.746 22.8718 184.667 22.4265C184.667 22.1765 184.617 22.0164 184.515 21.946C184.101 22.1882 183.761 22.3718 183.496 22.4968C182.652 22.8953 181.671 23.0945 180.554 23.0945C179.015 23.0945 177.828 22.6101 176.992 21.6414C176.585 21.1726 176.382 20.6492 176.382 20.071C176.382 19.4226 176.703 18.7781 177.343 18.1375C178.585 16.8953 180.128 16.2742 181.972 16.2742C183.089 16.2742 183.988 16.532 184.667 17.0476V15.9695C184.324 15.532 183.988 15.239 183.66 15.0906C183.339 14.9421 182.898 14.8757 182.335 14.8914C181.078 14.9148 179.925 15.1453 178.878 15.5828C178.41 15.7781 177.953 15.9539 177.507 16.1101V15.2429C177.609 15.157 177.757 15.0281 177.953 14.8562C177.984 14.8171 178.003 14.7937 178.011 14.7859V11.7625H175.609V10.3562H187.351V11.7625ZM184.667 19.1804C184.667 18.8367 184.257 18.5281 183.437 18.2546C182.757 18.0281 182.191 17.9148 181.738 17.9148C180.089 17.9148 178.769 18.5085 177.777 19.696C177.378 20.1726 177.179 20.5632 177.179 20.8679C177.343 21.4382 177.988 21.7234 179.113 21.7234C180.566 21.7234 181.894 21.3601 183.097 20.6335C184.144 20.0007 184.667 19.5164 184.667 19.1804Z" fill="white"/>
<path d="M202.339 10.3562L202.315 11.7625H201.12V14.0007C200.98 14.282 200.651 14.8757 200.136 15.782L195.976 23.0945C195.28 23.0945 194.37 22.5437 193.245 21.4421C192.011 20.239 191.394 18.9031 191.394 17.4343C191.394 16.6843 191.636 15.9851 192.12 15.3367C192.339 15.0398 192.448 14.8171 192.448 14.6687C192.448 14.3953 192.218 14.2585 191.757 14.2585C191.413 14.2585 191.081 14.3992 190.761 14.6804C190.644 14.782 190.39 15.0593 189.999 15.5125L188.487 14.1414C189.003 13.7039 189.507 13.4343 189.999 13.3328C190.241 13.2781 190.554 13.2507 190.937 13.2507C193.054 13.2273 194.112 14.3562 194.112 16.6375C194.112 16.9421 194.077 17.3992 194.007 18.0085C193.944 18.6179 193.913 19.075 193.913 19.3796C193.913 20.614 194.132 21.2859 194.569 21.3953C194.812 21.3953 195.097 21.0984 195.425 20.5046L198.999 14.0476V11.7625H187.608V10.3562H202.339Z" fill="white"/>
<path d="M215.393 24.9695C215.393 26.4226 214.69 27.1492 213.284 27.1492C212.659 27.1492 211.752 26.8523 210.565 26.2585C209.252 25.6023 208.151 25.2742 207.26 25.2742C205.346 25.2742 203.542 26.0281 201.846 27.5359C201.034 28.2625 200.397 29.1179 199.936 30.1023C199.905 29.9773 199.889 29.7781 199.889 29.5046C199.889 28.5671 200.17 27.6335 200.733 26.7039C201.249 25.8445 201.917 25.1257 202.737 24.5476C203.659 23.8992 204.71 23.575 205.889 23.575C206.702 23.575 207.409 23.7117 208.01 23.9851C208.331 24.1335 208.948 24.5164 209.862 25.1335C210.643 25.6648 211.241 25.9304 211.655 25.9304C212.686 25.9304 213.506 25.5046 214.116 24.6531C214.381 24.2859 214.514 23.9265 214.514 23.575C214.514 22.9578 214.327 22.4421 213.952 22.0281C213.577 21.6062 213.085 21.3953 212.475 21.3953C211.913 21.3953 210.987 21.6804 209.698 22.2507C208.409 22.8132 207.483 23.0945 206.92 23.0945C206.506 23.0945 206.006 22.8875 205.42 22.4734C204.202 21.6062 203.592 20.7976 203.592 20.0476C203.592 19.6335 203.823 19.2546 204.284 18.9109C204.698 18.5906 205.124 18.4109 205.561 18.3718L205.585 18.2429L205.01 17.4343C204.69 16.9812 204.53 16.4929 204.53 15.9695C204.53 14.1726 205.999 13.2742 208.936 13.2742C209.022 13.2585 209.081 13.1882 209.112 13.0632V11.7625H203.042V10.3562H215.088V11.7625H210.928V13.7312C210.928 14.0984 211.034 14.325 211.245 14.4109C211.377 14.4109 211.545 14.2898 211.749 14.0476L212.194 13.5085C212.311 13.3914 212.522 13.3132 212.827 13.2742C213.319 13.2742 213.788 13.5554 214.233 14.1179C214.436 14.3757 214.569 14.6335 214.631 14.8914L213.401 16.2976C213.385 15.9382 213.311 15.6101 213.178 15.3132C212.999 14.9148 212.764 14.7156 212.475 14.7156C212.366 14.7156 212.237 14.7664 212.088 14.8679C211.94 14.9695 211.866 15.071 211.866 15.1726C211.866 15.2898 211.917 15.4304 212.018 15.5945C212.135 15.7898 212.202 15.9109 212.217 15.9578C212.272 16.1375 212.299 16.364 212.299 16.6375C212.299 17.6921 211.87 18.407 211.01 18.782C210.44 19.032 209.542 19.157 208.315 19.157C206.752 19.157 205.686 19.5046 205.116 20.2C204.889 20.4734 204.78 20.696 204.788 20.8679C204.795 21.1023 204.913 21.3093 205.139 21.489C205.366 21.6609 205.6 21.7468 205.842 21.7468C206.288 21.7468 207.143 21.4382 208.409 20.821C209.901 20.0945 211.104 19.7234 212.018 19.7078C212.854 19.6921 213.557 20.0632 214.127 20.821C214.588 21.4226 214.92 22.1882 215.124 23.1179C215.303 23.9382 215.393 24.5554 215.393 24.9695ZM210.835 15.5593C210.835 14.614 210.331 14.1414 209.323 14.1414C208.51 14.1414 207.741 14.4265 207.014 14.9968C206.233 15.6062 205.842 16.3054 205.842 17.0945C205.842 17.5242 206.006 17.8914 206.335 18.196C206.67 18.5007 207.053 18.6531 207.483 18.6531C207.928 18.6609 208.432 18.5007 208.995 18.1726C209.495 17.8835 209.909 17.5476 210.237 17.1648C210.635 16.696 210.835 16.1609 210.835 15.5593Z" fill="white"/>
<path d="M228.506 11.7625H218.697V19.2742C218.697 19.7742 218.803 20.2898 219.014 20.821C219.443 21.907 220.154 22.45 221.147 22.45C222.482 22.45 223.498 21.8914 224.193 20.7742C224.732 19.9148 225.002 19.1062 225.002 18.3484V13.6843H227.381V23.6687C227.193 23.5593 226.842 23.3914 226.326 23.1648L224.979 22.5671V21.6296C224.057 22.3015 223.268 22.7273 222.611 22.907C222.213 23.0164 221.74 23.071 221.193 23.071C219.459 23.071 218.104 22.3093 217.127 20.7859C216.682 20.0906 216.459 19.3328 216.459 18.5125V11.7625H215.041V10.3562H228.506V11.7625Z" fill="white"/>
<path d="M240.623 11.7625H228.775V10.3562H240.623V11.7625ZM239.65 15.9695C239.65 16.4304 239.373 16.95 238.818 17.5281C238.349 18.0203 237.857 18.3875 237.341 18.6296L235.584 16.6375C236.115 16.5906 236.619 16.3953 237.095 16.0515C237.642 15.6609 237.916 15.2156 237.916 14.7156C237.916 14.45 237.744 14.2234 237.4 14.0359C237.103 13.864 236.81 13.7781 236.521 13.7781C235.92 13.7781 235.275 14.0671 234.588 14.6453C233.189 15.8171 232.49 17.114 232.49 18.5359V23.5046L230.24 22.3328V13.6609H232.513V14.5515C232.849 14.2156 233.545 13.864 234.599 13.4968C235.115 13.3171 235.646 13.2273 236.193 13.2273C237.326 13.2273 238.287 13.6609 239.076 14.5281C239.459 14.95 239.65 15.4304 239.65 15.9695Z" fill="white"/>
<path d="M254.028 11.7625H244.22V19.2742C244.22 19.7742 244.325 20.2898 244.536 20.821C244.966 21.907 245.677 22.45 246.669 22.45C248.005 22.45 249.021 21.8914 249.716 20.7742C250.255 19.9148 250.525 19.1062 250.525 18.3484V13.6843H252.903V23.6687C252.716 23.5593 252.364 23.3914 251.849 23.1648L250.501 22.5671V21.6296C249.579 22.3015 248.79 22.7273 248.134 22.907C247.735 23.0164 247.263 23.071 246.716 23.071C244.982 23.071 243.626 22.3093 242.65 20.7859C242.204 20.0906 241.982 19.3328 241.982 18.5125V11.7625H240.564V10.3562H254.028V11.7625Z" fill="white"/>
<path d="M265.337 11.7625H257.649V14.7859C258.11 14.5203 258.864 14.1726 259.911 13.7429C260.34 13.6257 260.86 13.5671 261.469 13.5671C262.305 13.5671 263.051 13.7976 263.708 14.2585C264.442 14.7664 264.809 15.4226 264.809 16.2273C264.809 17.3132 264.188 18.1023 262.946 18.5945C262.43 18.7976 261.985 18.8992 261.61 18.8992L264.329 22.2039L262.84 23.282L258.657 18.3132L259.43 16.7078C259.844 16.825 260.278 16.8835 260.731 16.8835C261.395 16.8835 261.938 16.7273 262.36 16.4148C262.837 16.071 263.075 15.5789 263.075 14.9382C263.075 14.3132 262.63 14.0007 261.739 14.0007C261.114 14.0007 260.45 14.3015 259.747 14.9031C259.247 15.3328 258.79 15.8523 258.376 16.4617C257.876 17.196 257.626 17.825 257.626 18.3484V23.2585L255.61 22.3562V11.7625H254.122V10.3562H255.54C255.54 8.11401 255.133 6.25073 254.321 4.76636C254.165 4.47729 253.864 4.0437 253.419 3.46558C252.997 2.91089 252.704 2.46948 252.54 2.14136H254.919C255.38 2.57104 255.856 3.27808 256.348 4.26245C257.184 5.93433 257.602 7.96558 257.602 10.3562H265.337V11.7625Z" fill="white"/>
<path d="M278.801 11.7625H268.992V19.2742C268.992 19.7742 269.098 20.2898 269.309 20.821C269.738 21.907 270.449 22.45 271.442 22.45C272.777 22.45 273.793 21.8914 274.488 20.7742C275.027 19.9148 275.297 19.1062 275.297 18.3484V13.6843H277.676V23.6687C277.488 23.5593 277.137 23.3914 276.621 23.1648L275.274 22.5671V21.6296C274.352 22.3015 273.563 22.7273 272.906 22.907C272.508 23.0164 272.035 23.071 271.488 23.071C269.754 23.071 268.399 22.3093 267.422 20.7859C266.977 20.0906 266.754 19.3328 266.754 18.5125V11.7625H265.336V10.3562H278.801V11.7625Z" fill="white"/>
<path d="M284.367 11.7625H283.125V10.3562H284.367V11.7625ZM280.359 11.7625H279.023V10.3562H280.359V11.7625ZM282.738 8.93823V23.364C282.66 23.3406 282.558 23.2976 282.433 23.2351L281.824 22.9187C281.129 22.5593 280.761 22.3796 280.722 22.3796V8.96167C280.722 8.14136 280.562 7.27026 280.242 6.34839C279.797 5.05933 279.105 3.88745 278.168 2.83276L277.429 2.00073H279.925C281.222 3.29761 282.074 4.88745 282.48 6.77026C282.652 7.56714 282.738 8.28979 282.738 8.93823Z" fill="white"/>
<path d="M302.944 15.4887V21.2847C302.944 23.2261 301.964 24.1967 300.004 24.1967H299.5C297.54 24.1967 296.56 23.2261 296.56 21.2847V6.89273C296.56 5.15673 297.54 4.28873 299.5 4.28873H300.004C301.964 4.28873 302.944 5.2594 302.944 7.20073V12.9967L301.46 12.8287V7.20073C301.46 6.24873 300.975 5.77273 300.004 5.77273H299.5C298.529 5.77273 298.044 6.14607 298.044 6.89273V21.2847C298.044 22.2367 298.529 22.7127 299.5 22.7127H300.004C300.975 22.7127 301.46 22.2367 301.46 21.2847V15.4887H302.944ZM304.836 24.0007V5.88473H304.332L304.556 4.40073H306.32V22.5167H307.3L307.076 24.0007H304.836ZM311.528 24.0007C310.669 24.0007 309.978 23.7581 309.456 23.2727C308.952 22.7687 308.7 22.1434 308.7 21.3967V12.6047C308.7 11.7461 308.942 11.1021 309.428 10.6727C309.932 10.2247 310.641 10.0007 311.556 10.0007H311.612C311.854 10.0007 312.088 10.0287 312.312 10.0847C312.554 10.1407 312.778 10.2247 312.984 10.3367V10.0007H314.468V22.5167H314.804L315.028 24.0007H312.984V23.3007L312.34 24.0007H311.528ZM311.024 11.4847C310.688 11.4847 310.464 11.5407 310.352 11.6527C310.24 11.7647 310.184 11.9887 310.184 12.3247V21.6767C310.184 22.0127 310.24 22.2367 310.352 22.3487C310.464 22.4607 310.688 22.5167 311.024 22.5167H312.984V11.4847H311.024ZM316.287 18.9607L317.771 19.1567V21.2007C317.771 22.1527 318.256 22.6287 319.227 22.6287H319.731C320.702 22.6287 321.187 22.2554 321.187 21.5087L321.159 18.7927L316.959 16.8047C316.511 16.5994 316.287 16.2261 316.287 15.6847V12.4927C316.287 10.7567 317.267 9.88873 319.227 9.88873H319.983C321.775 9.98207 322.671 10.9527 322.671 12.8007V15.0967L321.187 14.9567V12.8007C321.187 11.8487 320.702 11.3727 319.731 11.3727H319.227C318.76 11.3727 318.396 11.4661 318.135 11.6527C317.892 11.8207 317.771 12.0447 317.771 12.3247L317.799 15.6287L321.999 17.6167C322.447 17.8034 322.671 18.1767 322.671 18.7367V21.5087C322.671 23.2447 321.691 24.1127 319.731 24.1127H318.975C317.183 24.0194 316.287 23.0487 316.287 21.2007V18.9607ZM324.339 18.9607L325.823 19.1567V21.2007C325.823 22.1527 326.308 22.6287 327.279 22.6287H327.783C328.754 22.6287 329.239 22.2554 329.239 21.5087L329.211 18.7927L325.011 16.8047C324.563 16.5994 324.339 16.2261 324.339 15.6847V12.4927C324.339 10.7567 325.319 9.88873 327.279 9.88873H328.035C329.827 9.98207 330.723 10.9527 330.723 12.8007V15.0967L329.239 14.9567V12.8007C329.239 11.8487 328.754 11.3727 327.783 11.3727H327.279C326.812 11.3727 326.448 11.4661 326.187 11.6527C325.944 11.8207 325.823 12.0447 325.823 12.3247L325.851 15.6287L330.051 17.6167C330.499 17.8034 330.723 18.1767 330.723 18.7367V21.5087C330.723 23.2447 329.743 24.1127 327.783 24.1127H327.027C325.235 24.0194 324.339 23.0487 324.339 21.2007V18.9607ZM337.843 5.88473L338.123 4.40073H341.483C343.443 4.40073 344.423 5.3714 344.423 7.31273V15.1807C344.423 16.9167 343.443 17.7847 341.483 17.7847H339.831V24.0007H338.347V5.88473H337.843ZM341.483 5.88473H339.831V16.3007H341.483C342.453 16.3007 342.939 15.9274 342.939 15.1807V7.31273C342.939 6.36073 342.453 5.88473 341.483 5.88473ZM347.794 10.0007V11.0647L348.438 10.0007H349.866V11.6527H347.794V24.0007H346.31V11.4847H345.806L346.03 10.0007H347.794ZM356.034 12.8007C356.034 12.2221 355.94 11.8394 355.754 11.6527C355.567 11.4661 355.175 11.3727 354.578 11.3727H354.074C353.495 11.3727 353.103 11.4661 352.898 11.6527C352.711 11.8394 352.618 12.2221 352.618 12.8007V21.2007C352.618 21.7794 352.711 22.1621 352.898 22.3487C353.103 22.5354 353.495 22.6287 354.074 22.6287H354.578C355.175 22.6287 355.567 22.5354 355.754 22.3487C355.94 22.1621 356.034 21.7794 356.034 21.2007V12.8007ZM351.134 21.2007V12.8007C351.134 10.8594 352.114 9.88873 354.074 9.88873H354.578C356.538 9.88873 357.518 10.8594 357.518 12.8007V21.2007C357.518 23.1421 356.538 24.1127 354.578 24.1127H354.074C352.114 24.1127 351.134 23.1421 351.134 21.2007ZM359.367 8.96473V7.48073H360.795L361.019 8.96473H359.367ZM358.079 26.6327V25.1487H359.535V11.4847H359.143L359.367 10.0007H361.019V25.1487C361.019 25.5967 360.879 25.9514 360.599 26.2127C360.338 26.4927 359.983 26.6327 359.535 26.6327H358.079ZM362.699 21.2007V12.8007C362.699 10.8594 363.679 9.88873 365.639 9.88873H365.947C367.907 9.88873 368.887 10.8594 368.887 12.8007V18.1767H364.183V21.2007C364.183 21.7794 364.276 22.1621 364.463 22.3487C364.668 22.5354 365.06 22.6287 365.639 22.6287H365.947C366.544 22.6287 366.936 22.5354 367.123 22.3487C367.31 22.1621 367.403 21.7794 367.403 21.2007V19.8567H368.887V21.2007C368.887 23.1421 367.907 24.1127 365.947 24.1127H365.639C363.679 24.1127 362.699 23.1421 362.699 21.2007ZM367.403 12.8007C367.403 12.2221 367.31 11.8394 367.123 11.6527C366.936 11.4661 366.544 11.3727 365.947 11.3727H365.639C365.06 11.3727 364.668 11.4661 364.463 11.6527C364.276 11.8394 364.183 12.2221 364.183 12.8007V16.6927H367.403V12.8007ZM370.56 21.2007V12.8007C370.56 10.8594 371.54 9.88873 373.5 9.88873H373.808C375.768 9.88873 376.748 10.8594 376.748 12.8007V16.1327L375.264 15.9647V12.8007C375.264 12.2221 375.171 11.8394 374.984 11.6527C374.797 11.4661 374.405 11.3727 373.808 11.3727H373.5C372.921 11.3727 372.529 11.4661 372.324 11.6527C372.137 11.8394 372.044 12.2221 372.044 12.8007V21.2007C372.044 21.7794 372.137 22.1621 372.324 22.3487C372.529 22.5354 372.921 22.6287 373.5 22.6287H373.808C374.405 22.6287 374.797 22.5354 374.984 22.3487C375.171 22.1621 375.264 21.7794 375.264 21.2007V18.1487H376.748V21.2007C376.748 23.1421 375.768 24.1127 373.808 24.1127H373.5C371.54 24.1127 370.56 23.1421 370.56 21.2007ZM382.005 22.5167V24.0007H380.661C380.213 24.0007 379.849 23.8701 379.569 23.6087C379.307 23.3287 379.177 22.9647 379.177 22.5167V11.4847H378.001L378.225 10.0007H379.177V5.88473H378.673L378.897 4.40073H380.661V10.0007H382.005L381.781 11.4847H380.661V22.5167H382.005Z" fill="#F3F3F3"/>
<path d="M396.313 9.83273H397.797V17.4487H398.301C398.73 17.4487 399.076 17.3181 399.337 17.0567C399.617 16.7954 399.757 16.4501 399.757 16.0207V9.30073C399.757 8.8714 399.617 8.52606 399.337 8.26473C399.076 8.0034 398.73 7.87273 398.301 7.87273H391.805C391.376 7.87273 391.021 8.0034 390.741 8.26473C390.48 8.52606 390.349 8.8714 390.349 9.30073V21.0887C390.349 21.5181 390.48 21.8634 390.741 22.1247C391.002 22.3861 391.357 22.5167 391.805 22.5167H398.301C398.73 22.5167 399.076 22.3861 399.337 22.1247C399.617 21.8634 399.757 21.5181 399.757 21.0887V19.7447H401.241V21.0887C401.241 21.9474 400.97 22.6474 400.429 23.1887C399.888 23.7301 399.178 24.0007 398.301 24.0007H391.805C390.928 24.0007 390.218 23.7301 389.677 23.1887C389.136 22.6474 388.865 21.9474 388.865 21.0887V9.30073C388.865 8.4234 389.136 7.7234 389.677 7.20073C390.218 6.6594 390.928 6.38873 391.805 6.38873H398.301C399.178 6.38873 399.888 6.6594 400.429 7.20073C400.97 7.7234 401.241 8.4234 401.241 9.30073V16.0207C401.241 16.8794 400.97 17.5794 400.429 18.1207C399.906 18.6621 399.206 18.9327 398.329 18.9327H398.301L397.797 18.3727V20.5567H396.313V19.8567L395.669 20.5567H394.857C393.998 20.5567 393.308 20.3141 392.785 19.8287C392.281 19.3247 392.029 18.6994 392.029 17.9527V12.4367C392.029 11.5781 392.281 10.9341 392.785 10.5047C393.289 10.0567 393.998 9.83273 394.913 9.83273C395.174 9.83273 395.417 9.87006 395.641 9.94473C395.884 10.0007 396.108 10.0754 396.313 10.1687V9.83273ZM394.353 11.3167C394.017 11.3167 393.793 11.3727 393.681 11.4847C393.569 11.5967 393.513 11.8207 393.513 12.1567V18.2327C393.513 18.5687 393.569 18.7927 393.681 18.9047C393.793 19.0167 394.017 19.0727 394.353 19.0727H396.313V11.3167H394.353ZM402.793 5.88473L403.073 4.40073H406.433C408.393 4.40073 409.373 5.3714 409.373 7.31273V15.1807C409.373 16.3007 408.943 17.0661 408.085 17.4767L409.961 24.0007H408.449L406.685 17.7847C406.61 17.7847 406.526 17.7847 406.433 17.7847H404.781V24.0007H403.297V5.88473H402.793ZM406.433 5.88473H404.781V16.3007H406.433C407.403 16.3007 407.889 15.9274 407.889 15.1807V7.31273C407.889 6.36073 407.403 5.88473 406.433 5.88473ZM411.094 21.2007V12.8007C411.094 10.8594 412.074 9.88873 414.034 9.88873H414.342C416.302 9.88873 417.282 10.8594 417.282 12.8007V18.1767H412.578V21.2007C412.578 21.7794 412.672 22.1621 412.858 22.3487C413.064 22.5354 413.456 22.6287 414.034 22.6287H414.342C414.94 22.6287 415.332 22.5354 415.518 22.3487C415.705 22.1621 415.798 21.7794 415.798 21.2007V19.8567H417.282V21.2007C417.282 23.1421 416.302 24.1127 414.342 24.1127H414.034C412.074 24.1127 411.094 23.1421 411.094 21.2007ZM415.798 12.8007C415.798 12.2221 415.705 11.8394 415.518 11.6527C415.332 11.4661 414.94 11.3727 414.342 11.3727H414.034C413.456 11.3727 413.064 11.4661 412.858 11.6527C412.672 11.8394 412.578 12.2221 412.578 12.8007V16.6927H415.798V12.8007ZM421.783 24.0007C420.924 24.0007 420.234 23.7581 419.711 23.2727C419.207 22.7687 418.955 22.1434 418.955 21.3967V12.6047C418.955 11.7461 419.198 11.1021 419.683 10.6727C420.187 10.2247 420.896 10.0007 421.811 10.0007H421.867C422.11 10.0007 422.343 10.0287 422.567 10.0847C422.81 10.1407 423.034 10.2247 423.239 10.3367V10.0007H424.723V22.5167H425.059L425.283 24.0007H423.239V23.3007L422.595 24.0007H421.783ZM421.279 11.4847C420.943 11.4847 420.719 11.5407 420.607 11.6527C420.495 11.7647 420.439 11.9887 420.439 12.3247V21.6767C420.439 22.0127 420.495 22.2367 420.607 22.3487C420.719 22.4607 420.943 22.5167 421.279 22.5167H423.239V11.4847H421.279ZM426.542 21.2007V12.8007C426.542 10.8594 427.522 9.88873 429.482 9.88873H429.79C431.75 9.88873 432.73 10.8594 432.73 12.8007V16.1327L431.246 15.9647V12.8007C431.246 12.2221 431.153 11.8394 430.966 11.6527C430.78 11.4661 430.388 11.3727 429.79 11.3727H429.482C428.904 11.3727 428.512 11.4661 428.306 11.6527C428.12 11.8394 428.026 12.2221 428.026 12.8007V21.2007C428.026 21.7794 428.12 22.1621 428.306 22.3487C428.512 22.5354 428.904 22.6287 429.482 22.6287H429.79C430.388 22.6287 430.78 22.5354 430.966 22.3487C431.153 22.1621 431.246 21.7794 431.246 21.2007V18.1487H432.73V21.2007C432.73 23.1421 431.75 24.1127 429.79 24.1127H429.482C427.522 24.1127 426.542 23.1421 426.542 21.2007ZM437.987 22.5167V24.0007H436.643C436.195 24.0007 435.831 23.8701 435.551 23.6087C435.29 23.3287 435.159 22.9647 435.159 22.5167V11.4847H433.983L434.207 10.0007H435.159V5.88473H434.655L434.879 4.40073H436.643V10.0007H437.987L437.763 11.4847H436.643V22.5167H437.987Z" fill="#F85146"/>
</svg>
